<?xml version="1.0" encoding="UTF-8"?>
<!DOCTYPE svg PUBLIC "-//W3C//DTD SVG 1.1//EN" "http://www.w3.org/Graphics/SVG/1.1/DTD/svg11.dtd">
<svg xmlns="http://www.w3.org/2000/svg" version="1.1" width="249px" height="247px" style="shape-rendering:geometricPrecision; text-rendering:geometricPrecision; image-rendering:optimizeQuality; fill-rule:evenodd; clip-rule:evenodd" xmlns:xlink="http://www.w3.org/1999/xlink">
<g><path style="opacity:1" fill="#e3675e" d="M 108.5,-0.5 C 118.833,-0.5 129.167,-0.5 139.5,-0.5C 200.407,10.7404 236.74,46.7404 248.5,107.5C 248.5,117.833 248.5,128.167 248.5,138.5C 236.74,199.26 200.407,235.26 139.5,246.5C 129.167,246.5 118.833,246.5 108.5,246.5C 75.7614,241.635 48.7614,226.635 27.5,201.5C 27.5,200.167 26.8333,199.5 25.5,199.5C 24.8333,198.5 24.1667,197.5 23.5,196.5C 23.9118,194.027 22.9118,192.694 20.5,192.5C 20.5,192.167 20.5,191.833 20.5,191.5C 20.573,189.973 19.9063,188.973 18.5,188.5C 18.4456,186.368 17.4456,185.035 15.5,184.5C 14.8902,183.609 14.5569,182.609 14.5,181.5C 13.892,178.594 12.5587,176.26 10.5,174.5C 9.89022,173.609 9.55688,172.609 9.5,171.5C 9.07284,168.624 8.40618,165.791 7.5,163C 7.16389,161.97 6.49722,161.47 5.5,161.5C 4.76589,160.292 4.43255,158.959 4.5,157.5C 3.69268,150.669 2.69268,144.003 1.5,137.5C 1.19256,127.418 1.5259,117.418 2.5,107.5C 2.72247,100.056 3.72247,92.7225 5.5,85.5C 5.5,85.1667 5.5,84.8333 5.5,84.5C 6.49722,84.5299 7.16389,84.0299 7.5,83C 8.40618,80.2094 9.07284,77.3761 9.5,74.5C 9.32842,73.5084 9.66175,72.8417 10.5,72.5C 12.8373,70.4934 14.1706,67.8267 14.5,64.5C 14.3284,63.5084 14.6618,62.8417 15.5,62.5C 17.8796,60.4181 19.5462,57.7515 20.5,54.5C 20.5,54.1667 20.5,53.8333 20.5,53.5C 22.9971,52.8707 24.3304,51.204 24.5,48.5C 24.5,47.8333 24.8333,47.5 25.5,47.5C 27.9971,46.8707 29.3304,45.204 29.5,42.5C 31.5,42.5 32.5,41.5 32.5,39.5C 35.5,37.8333 37.8333,35.5 39.5,32.5C 41.8333,32.1667 43.1667,30.8333 43.5,28.5C 45.0269,28.573 46.0269,27.9063 46.5,26.5C 48.5,26.5 49.5,25.5 49.5,23.5C 50.1667,23.1667 50.8333,22.8333 51.5,22.5C 53.0269,22.573 54.0269,21.9063 54.5,20.5C 55.6594,18.7497 57.326,17.7497 59.5,17.5C 61.632,17.4456 62.9653,16.4456 63.5,14.5C 64.391,13.8902 65.391,13.5569 66.5,13.5C 67.8734,13.6567 69.2068,13.49 70.5,13C 73.5964,11.1282 76.5964,9.29483 79.5,7.5C 81.698,7.87988 83.3646,7.21321 84.5,5.5C 92.4397,2.85016 100.44,0.850158 108.5,-0.5 Z"/></g>
<g><path style="opacity:1" fill="#df9791" d="M 84.5,5.5 C 83.3646,7.21321 81.698,7.87988 79.5,7.5C 80.9303,6.46253 82.597,5.79586 84.5,5.5 Z"/></g>
<g><path style="opacity:1" fill="#e8837a" d="M 79.5,7.5 C 76.5964,9.29483 73.5964,11.1282 70.5,13C 69.2068,13.49 67.8734,13.6567 66.5,13.5C 70.4047,10.7164 74.738,8.71637 79.5,7.5 Z"/></g>
<g><path style="opacity:1" fill="#dda49f" d="M 63.5,14.5 C 62.9653,16.4456 61.632,17.4456 59.5,17.5C 60.4363,16.0256 61.7697,15.0256 63.5,14.5 Z"/></g>
<g><path style="opacity:0.875" fill="#f1d6d5" d="M 54.5,20.5 C 54.0269,21.9063 53.0269,22.573 51.5,22.5C 51.9731,21.0937 52.9731,20.427 54.5,20.5 Z"/></g>
<g><path style="opacity:1" fill="#ecbbb7" d="M 49.5,23.5 C 49.5,25.5 48.5,26.5 46.5,26.5C 47.1667,25.1667 48.1667,24.1667 49.5,23.5 Z"/></g>
<g><path style="opacity:0.875" fill="#df9d97" d="M 46.5,26.5 C 46.0269,27.9063 45.0269,28.573 43.5,28.5C 43.9731,27.0937 44.9731,26.427 46.5,26.5 Z"/></g>
<g><path style="opacity:1" fill="#f8b6b0" d="M 43.5,28.5 C 43.1667,30.8333 41.8333,32.1667 39.5,32.5C 40.5,30.8333 41.8333,29.5 43.5,28.5 Z"/></g>
<g><path style="opacity:0.812" fill="#edd2d0" d="M 39.5,32.5 C 37.8333,35.5 35.5,37.8333 32.5,39.5C 33.8333,36.1667 36.1667,33.8333 39.5,32.5 Z"/></g>
<g><path style="opacity:1" fill="#efaea8" d="M 32.5,39.5 C 32.5,41.5 31.5,42.5 29.5,42.5C 30.1667,41.1667 31.1667,40.1667 32.5,39.5 Z"/></g>
<g><path style="opacity:0.624" fill="#efd2d0" d="M 29.5,42.5 C 29.3304,45.204 27.9971,46.8707 25.5,47.5C 26.0798,45.2512 27.4131,43.5846 29.5,42.5 Z"/></g>
<g><path style="opacity:0.686" fill="#edd7d5" d="M 24.5,48.5 C 24.3304,51.204 22.9971,52.8707 20.5,53.5C 21.604,51.6115 22.9373,49.9448 24.5,48.5 Z"/></g>
<g><path style="opacity:0.561" fill="#f1dbd9" d="M 20.5,54.5 C 19.5462,57.7515 17.8796,60.4181 15.5,62.5C 16.3833,59.2957 18.0499,56.6291 20.5,54.5 Z"/></g>
<g><path style="opacity:1" fill="#f7d0c9" d="M 132.5,59.5 C 133.167,60.1667 133.833,60.8333 134.5,61.5C 128.161,60.2487 121.828,60.2487 115.5,61.5C 116.263,60.7321 117.263,60.2321 118.5,60C 123.155,59.5008 127.821,59.3342 132.5,59.5 Z"/></g>
<g><path style="opacity:1" fill="#ea8a7f" d="M 132.5,59.5 C 136.258,59.3952 139.592,60.3952 142.5,62.5C 139.833,62.1667 137.167,61.8333 134.5,61.5C 133.833,60.8333 133.167,60.1667 132.5,59.5 Z"/></g>
<g><path style="opacity:1" fill="#fefbfa" d="M 134.5,61.5 C 137.167,61.8333 139.833,62.1667 142.5,62.5C 157.182,66.7601 169.015,75.0934 178,87.5C 179.038,90.8147 180.538,93.8147 182.5,96.5C 182.259,98.8984 182.926,100.898 184.5,102.5C 185.434,103.568 185.768,104.901 185.5,106.5C 186.324,109.764 186.658,113.098 186.5,116.5C 170.833,116.5 155.167,116.5 139.5,116.5C 139.715,114.821 139.048,113.821 137.5,113.5C 134.928,111.179 131.928,109.346 128.5,108C 118.781,106.393 112.448,110.226 109.5,119.5C 108.357,122.976 108.19,126.642 109,130.5C 109.417,131.756 110.25,132.423 111.5,132.5C 117.291,138.668 124.291,140.168 132.5,137C 135.118,134.894 137.118,132.394 138.5,129.5C 154.833,129.5 171.167,129.5 187.5,129.5C 187.5,130.5 187.5,131.5 187.5,132.5C 187.5,133.833 187.5,135.167 187.5,136.5C 185.787,137.635 185.12,139.302 185.5,141.5C 179.85,159.752 168.35,173.085 151,181.5C 146.917,182.965 142.75,183.965 138.5,184.5C 127.447,185.908 116.447,185.574 105.5,183.5C 97.9557,181.044 90.9557,177.544 84.5,173C 77.0761,166.414 71.4094,158.58 67.5,149.5C 67.2451,147.033 66.2451,145.033 64.5,143.5C 63.5778,139.888 62.9111,136.221 62.5,132.5C 62.5,131.5 62.5,130.5 62.5,129.5C 67.5,129.5 72.5,129.5 77.5,129.5C 77.2627,130.791 77.596,131.791 78.5,132.5C 83.6608,153.329 96.6608,165.995 117.5,170.5C 122.316,171.65 127.316,171.816 132.5,171C 133.416,170.722 134.082,170.222 134.5,169.5C 140.795,167.857 146.795,165.357 152.5,162C 157.211,157.339 161.544,152.506 165.5,147.5C 166.404,146.791 166.737,145.791 166.5,144.5C 161.381,143.897 156.715,144.564 152.5,146.5C 147.974,150.501 142.974,154.001 137.5,157C 119.442,162.195 104.942,157.362 94,142.5C 82.9831,118.714 89.1498,101.047 112.5,89.5C 119.465,88.6591 126.465,88.3257 133.5,88.5C 141.386,90.6063 147.72,94.9397 152.5,101.5C 157.305,102.487 162.305,102.821 167.5,102.5C 167.715,100.821 167.048,99.8212 165.5,99.5C 156.015,84.082 142.015,76.4153 123.5,76.5C 104.604,77.0852 90.9378,85.7519 82.5,102.5C 81.0937,102.973 80.427,103.973 80.5,105.5C 79.2264,107.993 78.5597,110.659 78.5,113.5C 74.0388,116.221 69.0388,117.221 63.5,116.5C 64.1995,112.202 64.5328,107.869 64.5,103.5C 66.6109,96.6115 69.7776,90.2782 74,84.5C 79.2746,78.8857 84.7746,73.719 90.5,69C 95.1139,66.848 99.7806,65.0147 104.5,63.5C 107.152,63.5905 109.485,62.9238 111.5,61.5C 112.833,61.5 114.167,61.5 115.5,61.5C 121.828,60.2487 128.161,60.2487 134.5,61.5 Z"/></g>
<g><path style="opacity:1" fill="#f6cbc4" d="M 111.5,61.5 C 109.485,62.9238 107.152,63.5905 104.5,63.5C 106.515,62.0762 108.848,61.4095 111.5,61.5 Z"/></g>
<g><path style="opacity:0.502" fill="#ecdddc" d="M 14.5,64.5 C 14.1706,67.8267 12.8373,70.4934 10.5,72.5C 10.7936,69.2459 12.127,66.5792 14.5,64.5 Z"/></g>
<g><path style="opacity:0.439" fill="#f3e6e4" d="M 9.5,74.5 C 9.07284,77.3761 8.40618,80.2094 7.5,83C 7.16389,84.0299 6.49722,84.5299 5.5,84.5C 6.26672,80.8512 7.60006,77.5178 9.5,74.5 Z"/></g>
<g><path style="opacity:1" fill="#f3b9b0" d="M 133.5,88.5 C 126.465,88.3257 119.465,88.6591 112.5,89.5C 116.203,87.945 120.203,87.2783 124.5,87.5C 127.686,87.502 130.686,87.8353 133.5,88.5 Z"/></g>
<g><path style="opacity:1" fill="#f6cac3" d="M 165.5,99.5 C 167.048,99.8212 167.715,100.821 167.5,102.5C 162.305,102.821 157.305,102.487 152.5,101.5C 157.294,102.097 161.627,101.43 165.5,99.5 Z"/></g>
<g><path style="opacity:1" fill="#f6cbc3" d="M 182.5,96.5 C 184.074,98.1016 184.741,100.102 184.5,102.5C 182.926,100.898 182.259,98.8984 182.5,96.5 Z"/></g>
<g><path style="opacity:1" fill="#f5e1df" d="M 5.5,85.5 C 3.72247,92.7225 2.72247,100.056 2.5,107.5C 1.83333,107.5 1.16667,107.5 0.5,107.5C 0.910755,99.7642 2.57742,92.4309 5.5,85.5 Z"/></g>
<g><path style="opacity:1" fill="#eea298" d="M 82.5,102.5 C 82.573,104.027 81.9063,105.027 80.5,105.5C 80.427,103.973 81.0937,102.973 82.5,102.5 Z"/></g>
<g><path style="opacity:1" fill="#ec847d" d="M 0.5,107.5 C 1.16667,107.5 1.83333,107.5 2.5,107.5C 1.5259,117.418 1.19256,127.418 1.5,137.5C 0.505979,127.681 0.172646,117.681 0.5,107.5 Z"/></g>
<g><path style="opacity:1" fill="#f9ded9" d="M 64.5,103.5 C 64.5328,107.869 64.1995,112.202 63.5,116.5C 69.0388,117.221 74.0388,116.221 78.5,113.5C 78.5,114.833 78.5,116.167 78.5,117.5C 73.1667,117.5 67.8333,117.5 62.5,117.5C 62.1228,112.547 62.7895,107.881 64.5,103.5 Z"/></g>
<g><path style="opacity:1" fill="#fae3df" d="M 185.5,106.5 C 186.117,106.611 186.617,106.944 187,107.5C 187.826,110.793 188.326,114.126 188.5,117.5C 171.833,117.5 155.167,117.5 138.5,117.5C 138.567,116.041 138.234,114.708 137.5,113.5C 139.048,113.821 139.715,114.821 139.5,116.5C 155.167,116.5 170.833,116.5 186.5,116.5C 186.658,113.098 186.324,109.764 185.5,106.5 Z"/></g>
<g><path style="opacity:1" fill="#f0b0a6" d="M 78.5,132.5 C 77.596,131.791 77.2627,130.791 77.5,129.5C 72.5,129.5 67.5,129.5 62.5,129.5C 62.5,130.5 62.5,131.5 62.5,132.5C 61.5655,131.432 61.2322,130.099 61.5,128.5C 67.1667,128.5 72.8333,128.5 78.5,128.5C 78.5,129.833 78.5,131.167 78.5,132.5 Z"/></g>
<g><path style="opacity:1" fill="#f0b4aa" d="M 138.5,129.5 C 154.992,128.503 171.658,128.17 188.5,128.5C 188.768,130.099 188.434,131.432 187.5,132.5C 187.5,131.5 187.5,130.5 187.5,129.5C 171.167,129.5 154.833,129.5 138.5,129.5 Z"/></g>
<g><path style="opacity:1" fill="#f9d7d1" d="M 109.5,119.5 C 109.15,124.036 109.817,128.369 111.5,132.5C 110.25,132.423 109.417,131.756 109,130.5C 108.19,126.642 108.357,122.976 109.5,119.5 Z"/></g>
<g><path style="opacity:0.502" fill="#f1e1e0" d="M -0.5,107.5 C -0.166667,107.5 0.166667,107.5 0.5,107.5C 0.172646,117.681 0.505979,127.681 1.5,137.5C 2.69268,144.003 3.69268,150.669 4.5,157.5C 2.45269,151.262 0.786019,144.929 -0.5,138.5C -0.5,128.167 -0.5,117.833 -0.5,107.5 Z"/></g>
<g><path style="opacity:1" fill="#efa99f" d="M 187.5,136.5 C 187.204,138.403 186.537,140.07 185.5,141.5C 185.12,139.302 185.787,137.635 187.5,136.5 Z"/></g>
<g><path style="opacity:1" fill="#f2b6ac" d="M 165.5,147.5 C 163.952,146.206 161.952,145.539 159.5,145.5C 157.079,145.56 154.746,145.893 152.5,146.5C 156.715,144.564 161.381,143.897 166.5,144.5C 166.737,145.791 166.404,146.791 165.5,147.5 Z"/></g>
<g><path style="opacity:1" fill="#f6c7c0" d="M 64.5,143.5 C 66.2451,145.033 67.2451,147.033 67.5,149.5C 65.7549,147.967 64.7549,145.967 64.5,143.5 Z"/></g>
<g><path style="opacity:1" fill="#edd2d0" d="M 5.5,161.5 C 6.49722,161.47 7.16389,161.97 7.5,163C 8.40618,165.791 9.07284,168.624 9.5,171.5C 7.60006,168.482 6.26672,165.149 5.5,161.5 Z"/></g>
<g><path style="opacity:1" fill="#f4c3ba" d="M 134.5,169.5 C 134.082,170.222 133.416,170.722 132.5,171C 127.316,171.816 122.316,171.65 117.5,170.5C 123.196,170.553 128.862,170.22 134.5,169.5 Z"/></g>
<g><path style="opacity:0.937" fill="#f8dfdd" d="M 10.5,174.5 C 12.5587,176.26 13.892,178.594 14.5,181.5C 12.412,179.664 11.0787,177.331 10.5,174.5 Z"/></g>
<g><path style="opacity:1" fill="#ecd0cd" d="M 15.5,184.5 C 17.4456,185.035 18.4456,186.368 18.5,188.5C 17.0256,187.564 16.0256,186.23 15.5,184.5 Z"/></g>
<g><path style="opacity:1" fill="#f8d7d2" d="M 105.5,183.5 C 116.447,185.574 127.447,185.908 138.5,184.5C 138.389,185.117 138.056,185.617 137.5,186C 129.167,186.667 120.833,186.667 112.5,186C 110.073,185.098 107.74,184.264 105.5,183.5 Z"/></g>
<g><path style="opacity:0.439" fill="#dea7a2" d="M 18.5,188.5 C 19.9063,188.973 20.573,189.973 20.5,191.5C 19.0937,191.027 18.427,190.027 18.5,188.5 Z"/></g>
<g><path style="opacity:0.686" fill="#e8c8c5" d="M 20.5,192.5 C 22.9118,192.694 23.9118,194.027 23.5,196.5C 22.5116,195.205 21.5116,193.872 20.5,192.5 Z"/></g>
<g><path style="opacity:0.812" fill="#e2c8c5" d="M 25.5,199.5 C 26.8333,199.5 27.5,200.167 27.5,201.5C 26.5,201.167 25.8333,200.5 25.5,199.5 Z"/></g>
</svg>
